<?xml version="1.0" encoding="UTF-8"?>
<svg width="340.4mm" height="438.82mm" version="1.1" viewBox="0 0 340.4 438.82" xml:space="preserve" xmlns="http://www.w3.org/2000/svg"><g transform="translate(70.154 67.929)"><path d="m259.16-56.959c-12.461 1.3351-29.299 3.4426-43.496 7.2492-12.82 3.4372-25.476 7.9169-37.282 13.981-9.5172 4.8885-18.684 10.741-26.667 17.865-7.2635 6.4821-15.327 16.601-18.9 22.266-0.11204 0.72467-0.14503 0.99914-0.22481 1.5058-3.1275-6.7684-4.1717-16.851-7.8047-16.851-4.5486 0-21.044 33.517-27.215 34.132-3.1681 0.31612 5.0886-34.584 0.94878-31.842-7.0379 4.6619-15.887 16.752-24.451 25.623-7.4421-10.892-17.077-21.712-27.529-30.51-8.4638-7.1244-18.293-12.581-28.208-17.489-10.642-5.2681-21.794-9.6992-33.285-12.693-14.438-3.7619-35.863-6.7179-44.286-6.488-0.45368 7.7912-1.135 15.045-0.84646 22.567 0.56946 14.848 1.5362 29.856 5.0777 44.286 3.4336 13.991 8.4177 27.8 15.514 40.337 6.1709 10.901 14.28 20.753 23.13 29.618 7.8716 7.8851 19.21 15.248 26.36 20.682-2.5292 10.258 7e-3 21.081-3.6055 31.58-3.6799 10.696-12.638 23.38-18.435 29.563-6.0864 3.8645-5.9981 4.4113-12.058 9.2909 7.792 4.6873 14.719 7.8412 22.196 11.943 5.7296 3.1439 11.432 6.5442 16.967 10.106-0.49853 8.4014 0.65014 17.36 2.9016 25.67 2.6799 9.8916 6.7493 19.596 12.46 28.106 7.3844 11.004 18.283 19.191 27.528 28.687 7.766 7.9765 16.384 15.175 23.47 23.76 6.6342 8.0372 17.675 25.789 17.675 25.789l8.6925 17.675 14.199-25.209s16.474-19.637 25.789-28.396c9.5602-8.9903 21.284-15.504 30.714-24.63 8.9585-8.6699 17.902-17.72 24.34-28.396 4.8813-8.0942 8.2265-17.177 10.431-26.368 1.1992-5 1.94-10.239 1.449-15.357-0.71488-7.4524-1.1004-10.294-6.2709-21.494 8.0452-8.4976 14.35-18.447 20.504-24.18 6.1539-5.733 9.6008-7.2617 13.424-12.257-7.6933-4.7501-13.057-6.8884-18.905-11.338-6.9205-5.2656-15.105-10.159-18.898-17.984-2.9987-6.1858-0.40235-13.827-1.9074-20.535-0.83873-3.7381-1.8114-7.4722-2.8716-11.185 1.2308 3.9289 2.3875 7.6367 3.453 10.567 6.906-5.0573 13.232-11.273 18.9-17.606s10.756-12.968 15.016-20.195c6.2573-10.613 11.596-21.9 15.276-33.658 3.5893-11.47 5.353-23.503 6.4725-35.47 1.3264-14.178 1.9986-30.725 0.2589-42.719zm-245.21 150.5c-0.38159 1.1952-0.73623 2.3959-1.0986 3.5951 0.12217-0.65797 0.27211-1.3234 0.51212-2.0211 0.18191-0.52882 0.39765-1.0472 0.58652-1.5741z" fill="none" stroke="#fff" stroke-linecap="round" stroke-width="20"/><g><g stroke="#000" stroke-linecap="round" stroke-width="5"><path d="m10.484 107.64c-7.1154-5.463-18.812-12.992-26.844-21.038-8.8501-8.8653-16.96-18.717-23.13-29.618-7.0966-12.537-12.081-26.346-15.514-40.337-3.5415-14.431-4.5079-29.438-5.0774-44.286-0.28849-7.5218 0.39256-14.775 0.84624-22.566 8.4236-0.22996 29.849 2.7259 44.286 6.4878 11.491 2.9941 22.643 7.4254 33.285 12.694 9.9148 4.9081 19.744 10.364 28.208 17.489 11.113 9.3542 21.336 20.993 28.944 32.576-8.1277 8.5178-19.177 13.436-27.362 21.72-9.0497 9.16-16.944 19.552-23.649 30.544-4.5615 7.4778-8.2633 15.529-11.113 23.812-1.3933 4.0503-0.26013 7.1551-2.8796 12.523z" fill="#f9733e"/><path d="m19.795 73.729c-5.91-5.5003-13.194-12.953-18.647-20.369-6.4226-8.7341-12.74-17.893-16.352-28.114-2.9339-8.3012-4.276-18.096-4.0163-26.106 6.5711 0.30909 15.323 3.5473 22.377 6.8852 9.23 4.3673 17.627 10.463 25.532 16.926 5.6536 4.6226 11.079 10.913 15.492 15.492-3.3329 5.4389-8.3419 9.9061-12.049 15.205-4.5036 6.4369-8.721 14.394-12.336 20.082z" fill="#fff"/><path d="m132.82 4.4014c3.5731-5.6645 11.637-15.784 18.9-22.266 7.9828-7.124 17.15-12.976 26.667-17.864 11.806-6.0642 24.463-10.544 37.282-13.981 14.197-3.8066 31.035-5.9143 43.496-7.2493 1.7397 11.994 1.0675 28.541-0.2589 42.719-1.1194 11.966-2.8834 24-6.4726 35.47-3.6795 11.758-9.0181 23.044-15.275 33.658-4.2604 7.2262-9.3479 13.862-15.016 20.195s-11.994 12.548-18.9 17.606c-3.4289-9.4307-7.3105-25.926-14.24-37.282-7.0034-11.477-16.237-21.877-26.926-30.033-7.6709-5.8529-19.575-9.8118-25.89-12.945-4.287-4.5823-4.331-1.782-3.3658-8.0261z" fill="#f9733e"/><path d="m162.85 25.373c9.3757-8.1389 16.355-15.741 26.149-21.23 9.2624-5.1912 22.957-16.013 30.033-10.615 3.4517 7.4687 0.3596 14.448-1.5534 21.489-1.913 7.0408-5.3683 12.853-9.8384 19.936s-9.0716 15.256-17.347 22.007c-6.2038-10.337-17.92-22.153-27.444-31.586z" fill="#fff"/></g><g><path d="m15.068 199.64c-0.51649 8.4356 0.63552 17.439 2.8976 25.789 2.6799 9.8916 6.7493 19.597 12.46 28.107 7.3844 11.004 18.282 19.191 27.527 28.686 7.766 7.9765 16.384 15.175 23.471 23.76 6.6342 8.0372 17.675 25.789 17.675 25.789l8.6928 17.675 14.198-25.209s16.474-19.637 25.789-28.396c9.5602-8.9903 21.284-15.503 30.715-24.63 8.9585-8.6699 17.902-17.721 24.34-28.396 4.8813-8.0942 8.2269-17.177 10.431-26.368 1.1992-5 2.8961-10.423 1.4488-15.357l-6.3747-21.732c-7.0442 7.0475-27.516 24.813-43.754 33.322-12.03 6.3042-25.405 10.064-38.747 12.605-9.4054 1.7912-19.108 2.2968-28.668 1.7759-12.425-0.677-24.911-2.6291-36.787-6.3426-15.9-4.9716-35.564-15.402-45.314-21.077z" fill="#fff" stroke="#000" stroke-linecap="round" stroke-width="5"/><path d="m209.11 191.4c-11.434 9.571-28.248 22.985-44.648 30.431-19.48 8.8434-40.728 15.892-62.119 16.131-20.41 0.2282-45.728-8.501-59.597-14.062-12.913-6.3576-15.862-7.2412-24.507-14.39-1.1547-11.611-5.6682-19.795 31.016-27.71 14.456 5.4373 67.534-3.1017 80.698-13.196 19.127 4.7007 28.619 3.9968 42.261-0.80877 5.8694-0.57363 12.153-14.777 21.541-11.206 5.715 10.307 12.723 19.086 15.356 34.81z" fill="#dfd9d9"/></g><path d="m242.37 143.16c-3.8233 4.9952-9.1199 4.8008-12.854 8.2658-8.9543 8.3087-13.351 20.698-22.067 29.257-13.153 12.916-28.064 24.658-44.751 32.491-18.613 8.7378-39.21 15.064-59.772 15.251-20.41 0.18484-40.652-6.4674-59.597-14.062-9.074-3.6372-18.199-8.051-26.41-13.442-6.0964-4.0025-12.458-7.7745-18.821-11.266-7.4763-4.1023-14.404-7.2562-22.196-11.944 6.0601-4.8796 5.972-5.4267 12.058-9.2912 5.7966-6.1826 14.754-18.867 18.434-29.563 3.6799-10.696 0.94897-21.732 3.7245-32.16 4.8536-18.237 11.31-36.698 22.304-52.037 10.305-14.378 26.774-23.156 39.475-35.469 9.2208-8.9394 18.992-22.79 26.626-27.847 4.1398-2.7422-4.1169 32.158-0.94881 31.842 6.1704-0.61571 22.666-34.132 27.215-34.132 4.4312 0 4.9584 15.083 10.188 20.737 6.8221 7.3759 18.178 8.9724 25.935 15.358 11.081 9.1212 21.289 19.82 28.649 32.141 6.5502 10.967 10.302 23.549 13.098 36.013 1.505 6.7076-1.0916 14.349 1.9071 20.535 3.7933 7.825 11.978 12.719 18.898 17.985 5.8478 4.4494 11.212 6.5877 18.905 11.338z" fill="#f8723d" stroke="#000" stroke-width="5"/><g fill="none" stroke="#000" stroke-linecap="round" stroke-width="5"><path d="m144.73 99.42s6.655-8.6112 11.392-10.874c6.0466-2.8884 13.398-4.0614 19.936-2.5891 5.9085 1.3307 15.275 9.8384 15.275 9.8384"/><path d="m24.337 111.85s7.5324-9.5459 13.463-12.427c5.9307-2.8815 14.777-4.4058 20.971-3.3658 6.1946 1.04 14.499 7.7672 14.499 7.7672"/><path d="m53.076 136.44s6.9484 7.508 11.392 9.8384c2.1318 1.118 4.5854 1.7106 6.9904 1.8123 3.5864 0.15175 7.2695-0.51168 10.615-1.8123 4.3062-1.6741 11.651-7.5082 11.651-7.5082"/><path d="m143.43 130.49s6.9082 6.812 11.392 8.0261c3.9293 1.064 8.3259 0.30833 12.169-1.0356 2.9372-1.0273 5.52-3.0257 7.7672-5.1781 2.007-1.9224 4.9192-6.7315 4.9192-6.7315"/></g><path d="m242.37 143.16c-3.8233 4.9952-10.842 4.0424-15.202 7.6788-8.7345 7.2854-12.54 19.177-20.6 27.202-12.437 12.385-26.298 23.992-42.11 31.611-19.273 9.286-40.728 15.892-62.119 16.131-20.41 0.2282-40.652-6.4674-59.597-14.062-9.074-3.6372-17.612-7.464-25.823-12.855-6.0964-4.0025-12.751-7.481-19.114-10.973-7.4763-4.1023-13.817-10.191-21.902-10.183 1.3278-1.0692 34.699-13.014 50.512-13.546s28.463 5.7243 40.715 8.9941c14.456 5.4373 49.656-6.6402 62.819-16.734 19.127 4.7007 28.619 3.9968 42.261-0.80877 5.8694-0.57363 13.18-8.7213 21.541-11.206 18.465-5.4864 40.077-6.5257 48.62-1.251z" fill="#fff"/><g fill="none" stroke="#000" stroke-linecap="round" stroke-width="5"><path d="m92.17 184.6s7.6723 6.6013 12.169 8.8028c5.2489 2.5701 10.995 4.5639 16.829 4.9192 5.8488 0.35621 11.8-0.95842 17.347-2.848 6.0308-2.0545 12.048-4.8499 16.829-9.0617 2.7852-2.4539 6.4726-9.0617 6.4726-9.0617"/><path d="m68.61 172.69s-17.852-6.46-27.185-7.7672c-5.299-0.74215-10.731-0.56565-16.052 0-8.1636 0.86788-16.152 3.0404-24.078 5.1781-8.2645 2.2289-24.416 7.9567-24.416 7.9567"/><path d="m172.43 156.38s10.912-6.4066 16.829-8.5439c7.325-2.6459 15.03-4.4422 22.784-5.1781 9.6405-0.91498 29.034 0.99401 29.034 0.99401"/></g><path d="m132.3 177.61c-5.2099-1.7275-10.522-5.0495-13.204-9.8384-0.4658-0.83167-0.71225-2.0094-0.2589-2.848 2.185-4.0414 7.6432-5.6796 12.169-6.4726 3.6065-0.632 7.7234-0.31207 10.874 1.5534 1.1139 0.65955 2.232 1.8161 2.3301 3.1069 0.41544 5.4669-3.0632 11.682-7.7672 14.499-1.1847 0.70933-2.8318 0.4346-4.1425 0z" fill="#0e0b1e" stroke="#000" stroke-linecap="round" stroke-width="5"/></g><path d="m85.805 307.21c0.04688-3.1654 0.50751-25.301-1.5322-37.54-0.7051-4.2306-3.1291-7.5783-4.5967-11.492-0.3697-0.98588-0.29523-2.1227-0.76612-3.0645-1.4475-2.8949-5.9124-6.4154-8.4273-8.4273-1.7606-1.4085-5.3608-4.5967-7.6612-4.5967" fill="none"/></g></svg>
